ffmpeg started on 2025-06-07 at 15:14:18
Report written to "D:\Convert\FFMetrics\reports\ssim_report-6.txt"
Log level: 32
Command line:
ffmpeg -hide_banner -nostdin -i "G:\\\xc0\xed\xe8\xec\xe5\\\xce\xed\xe3\xee\xe8\xed\xe3\xe8\\!_36_\xce\xf1\xe5\xed\xfc_2024\\DreamCast\\\xd1\xee\xe1\xeb\xe0\xe7\xed 2,5-\xec\xe5\xf0\xed\xee\xe3\xee \xe8\xe7\xec\xe5\xf0\xe5\xed\xe8\xff\\[DC] 2-5 Jigen no Ririsa - 09_Telegram_HEVC.mkv" -i "G:\\\xc0\xed\xe8\xec\xe5\\\xce\xed\xe3\xee\xe8\xed\xe3\xe8\\!_36_\xce\xf1\xe5\xed\xfc_2024\\DreamCast\\\xd1\xee\xe1\xeb\xe0\xe7\xed 2,5-\xec\xe5\xf0\xed\xee\xe3\xee \xe8\xe7\xec\xe5\xf0\xe5\xed\xe8\xff\\[DC] 2-5 Jigen no Ririsa - 09_Telegram.mp4" -lavfi "[0:v]settb=AVTB,setpts=PTS-STARTPTS,format=pix_fmts=yuv420p10,fps=24/1,scale=1920:1080:flags=bicubic[main];[1:v]settb=AVTB,setpts=PTS-STARTPTS,format=pix_fmts=yuv420p,fps=24/1,scale=1920:1080:flags=bicubic[ref];[main][ref]ssim=eof_action=endall:stats_file='D\\:/Convert/FFMetrics/logs/ssim_logfile-6.txt'" -f null -
Input #0, matroska,webm, from 'G:\Аниме\Онгоинги\!_36_Осень_2024\DreamCast\Соблазн 2,5-мерного измерения\[DC] 2-5 Jigen no Ririsa - 09_Telegram_HEVC.mkv':
  Metadata:
    COMPATIBLE_BRANDS: isomiso2avc1mp41
    MAJOR_BRAND     : isom
    MINOR_VERSION   : 512
    ENCODER         : Lavf61.7.100
  Duration: 00:24:08.11, start: -0.021000, bitrate: 1192 kb/s
  Stream #0:0: Video: hevc (Main 10), yuv420p10le(tv, bt709, progressive), 1920x1080 [SAR 1:1 DAR 16:9], 24 fps, 24 tbr, 1k tbn (default)
      Metadata:
        HANDLER_NAME    : VideoHandler
        VENDOR_ID       : [0][0][0][0]
        ENCODER         : Lavc61.19.100 libx265
        BPS             : 995320
        DURATION        : 00:24:07.999666666
        NUMBER_OF_FRAMES: 34752
        NUMBER_OF_BYTES : 180152848
        _STATISTICS_WRITING_APP: mkvpropedit v66.0.0 ('Josie') 64-bit
        _STATISTICS_WRITING_DATE_UTC: 2025-06-04 10:59:46
        _STATISTICS_TAGS: BPS DURATION NUMBER_OF_FRAMES NUMBER_OF_BYTES
  Stream #0:1: Audio: aac (LC), 48000 Hz, stereo, fltp (default)
      Metadata:
        HANDLER_NAME    : SoundHandler
        VENDOR_ID       : [0][0][0][0]
        ENCODER         : Lavc61.19.100 aac
        BPS             : 193251
        DURATION        : 00:24:08.106000000
        NUMBER_OF_FRAMES: 67881
        NUMBER_OF_BYTES : 34981145
        _STATISTICS_WRITING_APP: mkvpropedit v66.0.0 ('Josie') 64-bit
        _STATISTICS_WRITING_DATE_UTC: 2025-06-04 10:59:46
        _STATISTICS_TAGS: BPS DURATION NUMBER_OF_FRAMES NUMBER_OF_BYTES
Input #1, mov,mp4,m4a,3gp,3g2,mj2, from 'G:\Аниме\Онгоинги\!_36_Осень_2024\DreamCast\Соблазн 2,5-мерного измерения\[DC] 2-5 Jigen no Ririsa - 09_Telegram.mp4':
  Metadata:
    major_brand     : isom
    minor_version   : 512
    compatible_brands: isomiso2avc1mp41
    encoder         : Lavf61.1.100
  Duration: 00:24:08.07, start: 0.000000, bitrate: 3859 kb/s
  Stream #1:0[0x1](und): Video: h264 (High) (avc1 / 0x31637661), yuv420p(tv, bt709, progressive), 1920x1080 [SAR 1:1 DAR 16:9], 3711 kb/s, 24 fps, 24 tbr, 12288 tbn (default)
      Metadata:
        handler_name    : VideoHandler
        vendor_id       : [0][0][0][0]
        encoder         : Lavc61.3.100 h264_qsv
  Stream #1:1[0x2](und): Audio: aac (HE-AACv2) (mp4a / 0x6134706D), 48000 Hz, stereo, fltp, 144 kb/s (default)
      Metadata:
        handler_name    : SoundHandler
        vendor_id       : [0][0][0][0]
Stream mapping:
  Stream #0:0 (hevc) -> settb:default
  Stream #1:0 (h264) -> settb:default
  ssim:default -> Stream #0:0 (wrapped_avframe)
  Stream #0:1 -> #0:1 (aac (native) -> pcm_s16le (native))
Output #0, null, to 'pipe:':
  Metadata:
    COMPATIBLE_BRANDS: isomiso2avc1mp41
    MAJOR_BRAND     : isom
    MINOR_VERSION   : 512
    encoder         : Lavf61.7.100
  Stream #0:0: Video: wrapped_avframe, yuv420p10le(tv, bt709, progressive), 1920x1080 [SAR 1:1 DAR 16:9], q=2-31, 200 kb/s, 24 fps, 24 tbn
      Metadata:
        encoder         : Lavc61.19.100 wrapped_avframe
  Stream #0:1: Audio: pcm_s16le, 48000 Hz, stereo, s16, 1536 kb/s (default)
      Metadata:
        HANDLER_NAME    : SoundHandler
        VENDOR_ID       : [0][0][0][0]
        _STATISTICS_TAGS: BPS DURATION NUMBER_OF_FRAMES NUMBER_OF_BYTES
        BPS             : 193251
        DURATION        : 00:24:08.106000000
        NUMBER_OF_FRAMES: 67881
        NUMBER_OF_BYTES : 34981145
        _STATISTICS_WRITING_APP: mkvpropedit v66.0.0 ('Josie') 64-bit
        _STATISTICS_WRITING_DATE_UTC: 2025-06-04 10:59:46
        encoder         : Lavc61.19.100 pcm_s16le
frame=  179 fps=0.0 q=-0.0 size=N/A time=00:00:07.45 bitrate=N/A speed=14.2x    frame=  386 fps=374 q=-0.0 size=N/A time=00:00:16.08 bitrate=N/A speed=15.6x    frame=  650 fps=417 q=-0.0 size=N/A time=00:00:27.08 bitrate=N/A speed=17.4x    frame=  915 fps=442 q=-0.0 size=N/A time=00:00:38.12 bitrate=N/A speed=18.4x    frame= 1166 fps=452 q=-0.0 size=N/A time=00:00:48.58 bitrate=N/A speed=18.8x    frame= 1420 fps=458 q=-0.0 size=N/A time=00:00:59.16 bitrate=N/A speed=19.1x    frame= 1688 fps=467 q=-0.0 size=N/A time=00:01:10.33 bitrate=N/A speed=19.5x    frame= 1975 fps=479 q=-0.0 size=N/A time=00:01:22.29 bitrate=N/A speed=19.9x    frame= 2258 fps=485 q=-0.0 size=N/A time=00:01:34.08 bitrate=N/A speed=20.2x    frame= 2503 fps=485 q=-0.0 size=N/A time=00:01:44.29 bitrate=N/A speed=20.2x    frame= 2751 fps=485 q=-0.0 size=N/A time=00:01:54.62 bitrate=N/A speed=20.2x    frame= 2990 fps=483 q=-0.0 size=N/A time=00:02:04.58 bitrate=N/A speed=20.1x    frame= 3240 fps=483 q=-0.0 size=N/A time=00:02:15.00 bitrate=N/A speed=20.1x    frame= 3520 fps=487 q=-0.0 size=N/A time=00:02:26.66 bitrate=N/A speed=20.3x    frame= 3778 fps=488 q=-0.0 size=N/A time=00:02:37.41 bitrate=N/A speed=20.3x    frame= 3991 fps=484 q=-0.0 size=N/A time=00:02:46.29 bitrate=N/A speed=20.2x    frame= 4202 fps=479 q=-0.0 size=N/A time=00:02:55.08 bitrate=N/A speed=  20x    frame= 4414 fps=475 q=-0.0 size=N/A time=00:03:03.91 bitrate=N/A speed=19.8x    frame= 4635 fps=473 q=-0.0 size=N/A time=00:03:13.12 bitrate=N/A speed=19.7x    frame= 4825 fps=467 q=-0.0 size=N/A time=00:03:21.04 bitrate=N/A speed=19.5x    frame= 5044 fps=466 q=-0.0 size=N/A time=00:03:30.16 bitrate=N/A speed=19.4x    frame= 5249 fps=463 q=-0.0 size=N/A time=00:03:38.70 bitrate=N/A speed=19.3x    frame= 5454 fps=459 q=-0.0 size=N/A time=00:03:47.25 bitrate=N/A speed=19.1x    frame= 5660 fps=457 q=-0.0 size=N/A time=00:03:55.83 bitrate=N/A speed=  19x    frame= 5864 fps=454 q=-0.0 size=N/A time=00:04:04.33 bitrate=N/A speed=18.9x    frame= 6063 fps=452 q=-0.0 size=N/A time=00:04:12.62 bitrate=N/A speed=18.8x    frame= 6319 fps=453 q=-0.0 size=N/A time=00:04:23.29 bitrate=N/A speed=18.9x    frame= 6564 fps=455 q=-0.0 size=N/A time=00:04:33.50 bitrate=N/A speed=18.9x    frame= 6816 fps=455 q=-0.0 size=N/A time=00:04:44.00 bitrate=N/A speed=  19x    frame= 7059 fps=456 q=-0.0 size=N/A time=00:04:54.12 bitrate=N/A speed=  19x    frame= 7308 fps=457 q=-0.0 size=N/A time=00:05:04.50 bitrate=N/A speed=  19x    frame= 7530 fps=456 q=-0.0 size=N/A time=00:05:13.75 bitrate=N/A speed=  19x    frame= 7744 fps=455 q=-0.0 size=N/A time=00:05:22.66 bitrate=N/A speed=  19x    frame= 7972 fps=454 q=-0.0 size=N/A time=00:05:32.16 bitrate=N/A speed=18.9x    frame= 8197 fps=454 q=-0.0 size=N/A time=00:05:41.54 bitrate=N/A speed=18.9x    frame= 8430 fps=454 q=-0.0 size=N/A time=00:05:51.25 bitrate=N/A speed=18.9x    frame= 8656 fps=454 q=-0.0 size=N/A time=00:06:00.66 bitrate=N/A speed=18.9x    frame= 8888 fps=453 q=-0.0 size=N/A time=00:06:10.33 bitrate=N/A speed=18.9x    frame= 9138 fps=454 q=-0.0 size=N/A time=00:06:20.75 bitrate=N/A speed=18.9x    frame= 9373 fps=454 q=-0.0 size=N/A time=00:06:30.54 bitrate=N/A speed=18.9x    frame= 9597 fps=454 q=-0.0 size=N/A time=00:06:39.87 bitrate=N/A speed=18.9x    frame= 9841 fps=454 q=-0.0 size=N/A time=00:06:50.04 bitrate=N/A speed=18.9x    frame=10050 fps=453 q=-0.0 size=N/A time=00:06:58.75 bitrate=N/A speed=18.9x    frame=10268 fps=453 q=-0.0 size=N/A time=00:07:07.83 bitrate=N/A speed=18.9x    frame=10498 fps=452 q=-0.0 size=N/A time=00:07:17.41 bitrate=N/A speed=18.8x    frame=10756 fps=453 q=-0.0 size=N/A time=00:07:28.16 bitrate=N/A speed=18.9x    frame=11011 fps=454 q=-0.0 size=N/A time=00:07:38.79 bitrate=N/A speed=18.9x    frame=11258 fps=455 q=-0.0 size=N/A time=00:07:49.08 bitrate=N/A speed=  19x    frame=11441 fps=453 q=-0.0 size=N/A time=00:07:56.70 bitrate=N/A speed=18.9x    frame=11639 fps=451 q=-0.0 size=N/A time=00:08:04.95 bitrate=N/A speed=18.8x    frame=11887 fps=452 q=-0.0 size=N/A time=00:08:15.29 bitrate=N/A speed=18.8x    frame=12128 fps=452 q=-0.0 size=N/A time=00:08:25.33 bitrate=N/A speed=18.8x    frame=12368 fps=452 q=-0.0 size=N/A time=00:08:35.33 bitrate=N/A speed=18.8x    frame=12611 fps=453 q=-0.0 size=N/A time=00:08:45.45 bitrate=N/A speed=18.9x    frame=12850 fps=453 q=-0.0 size=N/A time=00:08:55.41 bitrate=N/A speed=18.9x    frame=13061 fps=452 q=-0.0 size=N/A time=00:09:04.20 bitrate=N/A speed=18.8x    frame=13333 fps=454 q=-0.0 size=N/A time=00:09:15.54 bitrate=N/A speed=18.9x    frame=13580 fps=454 q=-0.0 size=N/A time=00:09:25.83 bitrate=N/A speed=18.9x    frame=13829 fps=454 q=-0.0 size=N/A time=00:09:36.20 bitrate=N/A speed=18.9x    frame=14067 fps=455 q=-0.0 size=N/A time=00:09:46.12 bitrate=N/A speed=18.9x    frame=14306 fps=455 q=-0.0 size=N/A time=00:09:56.08 bitrate=N/A speed=18.9x    frame=14541 fps=455 q=-0.0 size=N/A time=00:10:05.87 bitrate=N/A speed=18.9x    frame=14805 fps=456 q=-0.0 size=N/A time=00:10:16.87 bitrate=N/A speed=  19x    frame=15040 fps=456 q=-0.0 size=N/A time=00:10:26.66 bitrate=N/A speed=  19x    frame=15297 fps=456 q=-0.0 size=N/A time=00:10:37.37 bitrate=N/A speed=  19x    frame=15551 fps=457 q=-0.0 size=N/A time=00:10:47.95 bitrate=N/A speed=  19x    frame=15820 fps=458 q=-0.0 size=N/A time=00:10:59.16 bitrate=N/A speed=19.1x    frame=16077 fps=458 q=-0.0 size=N/A time=00:11:09.87 bitrate=N/A speed=19.1x    frame=16356 fps=460 q=-0.0 size=N/A time=00:11:21.50 bitrate=N/A speed=19.2x    frame=16623 fps=461 q=-0.0 size=N/A time=00:11:32.62 bitrate=N/A speed=19.2x    frame=16886 fps=461 q=-0.0 size=N/A time=00:11:43.58 bitrate=N/A speed=19.2x    frame=17157 fps=462 q=-0.0 size=N/A time=00:11:54.87 bitrate=N/A speed=19.3x    frame=17408 fps=462 q=-0.0 size=N/A time=00:12:05.33 bitrate=N/A speed=19.3x    frame=17657 fps=463 q=-0.0 size=N/A time=00:12:15.70 bitrate=N/A speed=19.3x    frame=17910 fps=463 q=-0.0 size=N/A time=00:12:26.25 bitrate=N/A speed=19.3x    frame=18171 fps=464 q=-0.0 size=N/A time=00:12:37.12 bitrate=N/A speed=19.3x    frame=18432 fps=464 q=-0.0 size=N/A time=00:12:48.00 bitrate=N/A speed=19.3x    frame=18697 fps=465 q=-0.0 size=N/A time=00:12:59.04 bitrate=N/A speed=19.4x    frame=18962 fps=465 q=-0.0 size=N/A time=00:13:10.08 bitrate=N/A speed=19.4x    frame=19223 fps=466 q=-0.0 size=N/A time=00:13:20.95 bitrate=N/A speed=19.4x    frame=19488 fps=467 q=-0.0 size=N/A time=00:13:32.00 bitrate=N/A speed=19.4x    frame=19747 fps=467 q=-0.0 size=N/A time=00:13:42.79 bitrate=N/A speed=19.5x    frame=19994 fps=467 q=-0.0 size=N/A time=00:13:53.08 bitrate=N/A speed=19.5x    frame=20262 fps=468 q=-0.0 size=N/A time=00:14:04.25 bitrate=N/A speed=19.5x    frame=20519 fps=468 q=-0.0 size=N/A time=00:14:14.95 bitrate=N/A speed=19.5x    frame=20774 fps=468 q=-0.0 size=N/A time=00:14:25.58 bitrate=N/A speed=19.5x    frame=21030 fps=469 q=-0.0 size=N/A time=00:14:36.25 bitrate=N/A speed=19.5x    frame=21294 fps=469 q=-0.0 size=N/A time=00:14:47.25 bitrate=N/A speed=19.5x    frame=21528 fps=469 q=-0.0 size=N/A time=00:14:57.00 bitrate=N/A speed=19.5x    frame=21775 fps=469 q=-0.0 size=N/A time=00:15:07.29 bitrate=N/A speed=19.6x    frame=22049 fps=470 q=-0.0 size=N/A time=00:15:18.70 bitrate=N/A speed=19.6x    frame=22316 fps=470 q=-0.0 size=N/A time=00:15:29.83 bitrate=N/A speed=19.6x    frame=22579 fps=471 q=-0.0 size=N/A time=00:15:40.79 bitrate=N/A speed=19.6x    frame=22852 fps=471 q=-0.0 size=N/A time=00:15:52.16 bitrate=N/A speed=19.6x    frame=23108 fps=472 q=-0.0 size=N/A time=00:16:02.83 bitrate=N/A speed=19.7x    frame=23359 fps=472 q=-0.0 size=N/A time=00:16:13.29 bitrate=N/A speed=19.7x    frame=23624 fps=472 q=-0.0 size=N/A time=00:16:24.33 bitrate=N/A speed=19.7x    frame=23862 fps=472 q=-0.0 size=N/A time=00:16:34.25 bitrate=N/A speed=19.7x    frame=24107 fps=472 q=-0.0 size=N/A time=00:16:44.45 bitrate=N/A speed=19.7x    frame=24371 fps=473 q=-0.0 size=N/A time=00:16:55.45 bitrate=N/A speed=19.7x    frame=24606 fps=472 q=-0.0 size=N/A time=00:17:05.25 bitrate=N/A speed=19.7x    frame=24879 fps=473 q=-0.0 size=N/A time=00:17:16.62 bitrate=N/A speed=19.7x    frame=25140 fps=473 q=-0.0 size=N/A time=00:17:27.50 bitrate=N/A speed=19.7x    frame=25387 fps=473 q=-0.0 size=N/A time=00:17:37.79 bitrate=N/A speed=19.7x    frame=25642 fps=474 q=-0.0 size=N/A time=00:17:48.41 bitrate=N/A speed=19.7x    frame=25899 fps=474 q=-0.0 size=N/A time=00:17:59.12 bitrate=N/A speed=19.7x    frame=26158 fps=474 q=-0.0 size=N/A time=00:18:09.91 bitrate=N/A speed=19.8x    frame=26420 fps=474 q=-0.0 size=N/A time=00:18:20.83 bitrate=N/A speed=19.8x    frame=26678 fps=474 q=-0.0 size=N/A time=00:18:31.58 bitrate=N/A speed=19.8x    frame=26936 fps=475 q=-0.0 size=N/A time=00:18:42.33 bitrate=N/A speed=19.8x    frame=27205 fps=475 q=-0.0 size=N/A time=00:18:53.54 bitrate=N/A speed=19.8x    frame=27464 fps=475 q=-0.0 size=N/A time=00:19:04.33 bitrate=N/A speed=19.8x    frame=27724 fps=476 q=-0.0 size=N/A time=00:19:15.16 bitrate=N/A speed=19.8x    frame=27988 fps=476 q=-0.0 size=N/A time=00:19:26.16 bitrate=N/A speed=19.8x    frame=28193 fps=475 q=-0.0 size=N/A time=00:19:34.70 bitrate=N/A speed=19.8x    frame=28435 fps=475 q=-0.0 size=N/A time=00:19:44.79 bitrate=N/A speed=19.8x    frame=28700 fps=476 q=-0.0 size=N/A time=00:19:55.83 bitrate=N/A speed=19.8x    frame=28969 fps=476 q=-0.0 size=N/A time=00:20:07.04 bitrate=N/A speed=19.8x    frame=29243 fps=476 q=-0.0 size=N/A time=00:20:18.45 bitrate=N/A speed=19.8x    frame=29503 fps=477 q=-0.0 size=N/A time=00:20:29.29 bitrate=N/A speed=19.9x    frame=29792 fps=477 q=-0.0 size=N/A time=00:20:41.33 bitrate=N/A speed=19.9x    frame=29998 fps=477 q=-0.0 size=N/A time=00:20:49.91 bitrate=N/A speed=19.9x    frame=30244 fps=477 q=-0.0 size=N/A time=00:21:00.16 bitrate=N/A speed=19.9x    frame=30499 fps=477 q=-0.0 size=N/A time=00:21:10.79 bitrate=N/A speed=19.9x    frame=30751 fps=477 q=-0.0 size=N/A time=00:21:21.29 bitrate=N/A speed=19.9x    frame=31004 fps=477 q=-0.0 size=N/A time=00:21:31.83 bitrate=N/A speed=19.9x    frame=31271 fps=477 q=-0.0 size=N/A time=00:21:42.95 bitrate=N/A speed=19.9x    frame=31528 fps=477 q=-0.0 size=N/A time=00:21:53.66 bitrate=N/A speed=19.9x    frame=31799 fps=478 q=-0.0 size=N/A time=00:22:04.95 bitrate=N/A speed=19.9x    frame=32051 fps=478 q=-0.0 size=N/A time=00:22:15.45 bitrate=N/A speed=19.9x    frame=32306 fps=478 q=-0.0 size=N/A time=00:22:26.08 bitrate=N/A speed=19.9x    frame=32538 fps=478 q=-0.0 size=N/A time=00:22:35.75 bitrate=N/A speed=19.9x    frame=32745 fps=477 q=-0.0 size=N/A time=00:22:44.37 bitrate=N/A speed=19.9x    frame=32942 fps=476 q=-0.0 size=N/A time=00:22:52.58 bitrate=N/A speed=19.9x    frame=33118 fps=476 q=-0.0 size=N/A time=00:22:59.91 bitrate=N/A speed=19.8x    frame=33332 fps=475 q=-0.0 size=N/A time=00:23:08.83 bitrate=N/A speed=19.8x    frame=33530 fps=474 q=-0.0 size=N/A time=00:23:17.08 bitrate=N/A speed=19.8x    frame=33706 fps=473 q=-0.0 size=N/A time=00:23:24.41 bitrate=N/A speed=19.7x    frame=33925 fps=473 q=-0.0 size=N/A time=00:23:33.54 bitrate=N/A speed=19.7x    frame=34116 fps=472 q=-0.0 size=N/A time=00:23:41.50 bitrate=N/A speed=19.7x    frame=34295 fps=471 q=-0.0 size=N/A time=00:23:48.95 bitrate=N/A speed=19.6x    frame=34460 fps=470 q=-0.0 size=N/A time=00:23:55.83 bitrate=N/A speed=19.6x    frame=34687 fps=470 q=-0.0 size=N/A time=00:24:05.29 bitrate=N/A speed=19.6x    [Parsed_ssim_10 @ 000001d700616880] SSIM Y:0.993521 (21.884729) U:0.994085 (22.280156) V:0.993532 (21.892009) All:0.993617 (21.949414)
[out#0/null @ 000001d773854a40] video:14932KiB audio:271524KiB subtitle:0KiB other streams:0KiB global headers:0KiB muxing overhead: unknown
frame=34752 fps=470 q=-0.0 Lsize=N/A time=00:24:08.00 bitrate=N/A speed=19.6x    
